# xmcd
#
# Track frame offsets:
#	150
#	16559
#	33685
#	51774
#	69360
#	87840
#	112036
#	130837
#	154323
#	173948
#	194466
#
# Disc length: 2887 seconds
#
# Revision: 1
# Processed by: cddbd v1.5.2PL0 Copyright (c) Steve Scherf et al.
# Submitted via: audiograbber 1.83.01
#
DISCID=8f0b450b
DTITLE=Pete Alderton - Roadside Preaching
DYEAR=2013
DGENRE=Blues
TTITLE0=Soul Of A Man
TTITLE1=Curbside Blues
TTITLE2=My Sweet Valentina
TTITLE3=Kiss My Blues Away
TTITLE4=Who's To Blame
TTITLE5=Dance Me To The End Of Love
TTITLE6=Now
TTITLE7=Red Red Wine
TTITLE8=Lament For The War
TTITLE9=Homesick
TTITLE10=Stormy Monday
EXTD=
EXTT0=
EXTT1=
EXTT2=
EXTT3=
EXTT4=
EXTT5=
EXTT6=
EXTT7=
EXTT8=
EXTT9=
EXTT10=
PLAYORDER=
